<?xml version="1.0" encoding="utf-8"?>
<!-- Generator: Adobe Illustrator 18.0.0, SVG Export Plug-In . SVG Version: 6.00 Build 0)  -->
<!DOCTYPE svg PUBLIC "-//W3C//DTD SVG 1.1//EN" "http://www.w3.org/Graphics/SVG/1.1/DTD/svg11.dtd">
<svg version="1.1" id="Layer_1" xmlns="http://www.w3.org/2000/svg" xmlns:xlink="http://www.w3.org/1999/xlink" x="0px" y="0px"
	 width="359.1px" height="359.1px" viewBox="0 0 359.1 359.1" style="enable-background:new 0 0 359.1 359.1;" xml:space="preserve"
	>
<style type="text/css">
	.st0{fill:#FFFFFF;}
</style>
<g>
	<g>
		<path class="st0 hover" d="M179.6,73.7c58.4,0,105.9,47.5,105.9,105.9c0,58.4-47.5,105.9-105.9,105.9c-58.4,0-105.9-47.5-105.9-105.9
			C73.7,121.2,121.2,73.7,179.6,73.7 M179.6,25.4c-85.1,0-154.1,69-154.1,154.1s69,154.1,154.1,154.1c85.1,0,154.1-69,154.1-154.1
			S264.7,25.4,179.6,25.4L179.6,25.4z"/>
		<path class="st0 hover" d="M179.6,10C273,10,349,86.1,349,179.6c0,93.5-76,169.5-169.5,169.5c-93.5,0-169.5-76-169.5-169.5
			C10.1,86.1,86.1,10,179.6,10 M179.6,0C80.4,0,0,80.4,0,179.6s80.4,179.6,179.6,179.6c99.2,0,179.6-80.4,179.6-179.6
			S278.7,0,179.6,0L179.6,0z"/>
	</g>
</g>
</svg>
