<svg xmlns="http://www.w3.org/2000/svg" xmlns:xlink="http://www.w3.org/1999/xlink" preserveAspectRatio="xMidYMid" width="1600" height="600" viewBox="0 0 1600 600">
  <defs>
    <style>
      .cls-1 {
        fill: #000;
        opacity: 0.24;
      }

      .cls-1, .cls-2, .cls-3 {
        fill-rule: evenodd;
      }

      .cls-2 {
        fill: #fff;
        opacity: 0.2;
      }

      .cls-3 {
        fill: #a440a9;
        opacity: 0.18;
      }
    </style>
  </defs>
  <path d="M1484.258,112.945 L1484.258,286.192 L1447.509,286.192 L1447.509,112.945 L1384.218,112.945 L1384.218,79.695 L1547.549,79.695 L1547.549,112.945 L1484.258,112.945 ZM1351.379,260.817 C1341.654,270.347 1330.088,277.784 1316.671,283.130 C1303.255,288.475 1288.476,291.246 1272.339,291.442 C1256.393,291.442 1241.760,288.863 1228.444,283.713 C1215.123,278.563 1203.652,271.272 1194.027,261.838 C1184.403,252.409 1176.865,241.085 1171.424,227.860 C1165.978,214.639 1163.257,199.960 1163.257,183.819 C1163.257,167.294 1165.978,152.273 1171.424,138.757 C1176.865,125.245 1184.403,113.724 1194.027,104.195 C1203.652,94.670 1215.123,87.329 1228.444,82.174 C1241.760,77.025 1256.393,74.445 1272.339,74.445 C1288.476,74.254 1303.255,76.633 1316.671,81.591 C1330.088,86.549 1341.654,93.795 1351.379,103.320 C1361.100,112.849 1368.683,124.319 1374.129,137.736 C1379.570,151.152 1382.295,166.127 1382.295,182.652 C1382.295,198.794 1379.570,213.472 1374.129,226.693 C1368.683,239.918 1361.100,251.293 1351.379,260.817 ZM1338.692,152.611 C1335.288,143.669 1330.475,135.840 1324.255,129.132 C1318.029,122.424 1310.547,117.174 1301.797,113.382 C1293.047,109.591 1283.322,107.695 1272.630,107.695 C1261.935,107.695 1252.260,109.591 1243.610,113.382 C1234.956,117.174 1227.519,122.424 1221.298,129.132 C1215.073,135.840 1210.260,143.669 1206.861,152.611 C1203.456,161.557 1201.757,171.181 1201.757,181.485 C1201.757,192.568 1203.456,202.777 1206.861,212.110 C1210.260,221.443 1215.073,229.514 1221.298,236.318 C1227.519,243.126 1234.956,248.472 1243.610,252.359 C1252.260,256.251 1261.935,258.192 1272.630,258.192 C1283.322,258.192 1293.047,256.251 1301.797,252.359 C1310.547,248.472 1318.029,243.126 1324.255,236.318 C1330.475,229.514 1335.288,221.443 1338.692,212.110 C1342.092,202.777 1343.796,192.568 1343.796,181.485 C1343.796,171.181 1342.092,161.557 1338.692,152.611 ZM985.784,127.819 L985.200,127.819 L985.200,286.192 L948.451,286.192 L948.451,79.695 L997.158,79.695 L1097.199,233.109 L1097.782,233.109 L1097.782,79.695 L1134.531,79.695 L1134.531,286.192 L1087.865,286.192 L985.784,127.819 ZM968.647,409.185 C968.647,423.093 966.259,434.301 961.487,442.809 C956.710,451.322 950.279,457.909 942.184,462.579 C934.089,467.249 924.696,470.416 914.008,472.074 C903.316,473.738 892.162,474.565 880.540,474.565 L852.520,474.565 L852.520,565.785 L813.292,565.785 L813.292,345.362 L887.389,345.362 C897.975,345.362 908.195,346.403 918.056,348.475 C927.911,350.552 936.580,354.031 944.052,358.905 C951.524,363.784 957.488,370.322 961.954,378.519 C966.414,386.721 968.647,396.941 968.647,409.185 ZM923.193,393.463 C920.284,389.415 916.548,386.302 911.985,384.123 C907.417,381.943 902.333,380.543 896.729,379.920 C891.125,379.297 885.726,378.986 880.540,378.986 L852.520,378.986 L852.520,440.941 L876.181,440.941 C881.785,440.941 887.594,440.737 893.616,440.318 C899.634,439.905 905.184,438.660 910.272,436.582 C915.356,434.510 919.505,431.397 922.726,427.242 C925.941,423.093 927.551,417.280 927.551,409.808 C927.551,402.958 926.097,397.510 923.193,393.463 ZM754.210,159.902 C761.401,162.627 769.276,165.252 777.834,167.777 C786.388,170.306 794.263,173.806 801.459,178.277 C808.650,182.752 814.679,188.681 819.542,196.068 C824.400,203.460 826.833,213.276 826.833,225.526 C826.833,236.609 824.792,246.284 820.709,254.547 C816.625,262.813 811.129,269.668 804.230,275.109 C797.325,280.555 789.305,284.638 780.168,287.359 C771.026,290.079 761.401,291.442 751.293,291.442 C738.460,291.442 726.110,289.300 714.252,285.025 C702.389,280.751 692.181,273.555 683.627,263.442 L711.335,236.609 C715.806,243.418 721.689,248.713 728.981,252.505 C736.272,256.297 744.001,258.192 752.168,258.192 C756.443,258.192 760.722,257.609 765.001,256.442 C769.276,255.276 773.168,253.526 776.668,251.193 C780.168,248.859 782.984,245.897 785.126,242.297 C787.263,238.701 788.334,234.568 788.334,229.901 C788.334,222.318 785.901,216.485 781.042,212.401 C776.180,208.318 770.151,204.868 762.959,202.047 C755.764,199.231 747.889,196.556 739.335,194.027 C730.776,191.502 722.901,188.048 715.710,183.673 C708.514,179.298 702.485,173.465 697.627,166.173 C692.765,158.881 690.336,149.111 690.336,136.861 C690.336,126.170 692.523,116.932 696.898,109.153 C701.273,101.378 707.006,94.912 714.106,89.758 C721.202,84.608 729.318,80.766 738.460,78.237 C747.597,75.712 756.930,74.445 766.459,74.445 C777.347,74.445 787.897,76.100 798.105,79.403 C808.313,82.712 817.500,88.153 825.667,95.737 L798.834,124.028 C794.942,118.391 789.742,114.257 783.230,111.632 C776.713,109.007 769.859,107.695 762.668,107.695 C758.389,107.695 754.255,108.182 750.272,109.153 C746.285,110.128 742.689,111.682 739.481,113.820 C736.272,115.962 733.693,118.732 731.752,122.132 C729.806,125.536 728.835,129.569 728.835,134.236 C728.835,141.236 731.264,146.586 736.127,150.277 C740.985,153.973 747.014,157.182 754.210,159.902 ZM525.257,79.695 L662.047,79.695 L662.047,112.945 L562.006,112.945 L562.006,163.694 L656.797,163.694 L656.797,196.943 L562.006,196.943 L562.006,252.943 L667.296,252.943 L667.296,286.192 L525.257,286.192 L525.257,79.695 ZM469.741,538.700 C459.360,548.871 447.013,556.810 432.692,562.516 C418.371,568.223 402.595,571.180 385.369,571.389 C368.348,571.389 352.728,568.636 338.514,563.139 C324.295,557.642 312.051,549.859 301.777,539.789 C291.503,529.724 283.457,517.636 277.648,503.519 C271.835,489.407 268.931,473.738 268.931,456.508 C268.931,438.869 271.835,422.835 277.648,408.407 C283.457,393.983 291.503,381.686 301.777,371.514 C312.051,361.347 324.295,353.510 338.514,348.008 C352.728,342.511 368.348,339.758 385.369,339.758 C402.595,339.554 418.371,342.093 432.692,347.386 C447.013,352.678 459.360,360.413 469.741,370.580 C480.117,380.752 488.211,392.996 494.024,407.317 C499.833,421.638 502.742,437.623 502.742,455.262 C502.742,472.493 499.833,488.161 494.024,502.274 C488.211,516.391 480.117,528.533 469.741,538.700 ZM456.198,423.195 C452.564,413.651 447.427,405.293 440.787,398.133 C434.142,390.972 426.154,385.368 416.814,381.321 C407.474,377.274 397.093,375.250 385.681,375.250 C374.264,375.250 363.936,377.274 354.703,381.321 C345.465,385.368 337.526,390.972 330.886,398.133 C324.241,405.293 319.104,413.651 315.475,423.195 C311.841,432.744 310.027,443.018 310.027,454.017 C310.027,465.848 311.841,476.744 315.475,486.707 C319.104,496.670 324.241,505.285 330.886,512.548 C337.526,519.815 345.465,525.521 354.703,529.671 C363.936,533.825 374.264,535.898 385.681,535.898 C397.093,535.898 407.474,533.825 416.814,529.671 C426.154,525.521 434.142,519.815 440.787,512.548 C447.427,505.285 452.564,496.670 456.198,486.707 C459.827,476.744 461.646,465.848 461.646,454.017 C461.646,443.018 459.827,432.744 456.198,423.195 ZM466.081,260.817 C456.356,270.347 444.790,277.784 431.373,283.130 C417.957,288.475 403.178,291.246 387.040,291.442 C371.095,291.442 356.461,288.863 343.145,283.713 C329.824,278.563 318.354,271.272 308.729,261.838 C299.104,252.409 291.567,241.085 286.125,227.860 C280.679,214.639 277.959,199.960 277.959,183.819 C277.959,167.294 280.679,152.273 286.125,138.757 C291.567,125.245 299.104,113.724 308.729,104.195 C318.354,94.670 329.824,87.329 343.145,82.174 C356.461,77.025 371.095,74.445 387.040,74.445 C403.178,74.254 417.957,76.633 431.373,81.591 C444.790,86.549 456.356,93.795 466.081,103.320 C475.801,112.849 483.385,124.319 488.831,137.736 C494.272,151.152 496.997,166.127 496.997,182.652 C496.997,198.794 494.272,213.472 488.831,226.693 C483.385,239.918 475.801,251.293 466.081,260.817 ZM453.394,152.611 C449.989,143.669 445.177,135.840 438.956,129.132 C432.731,122.424 425.248,117.174 416.498,113.382 C407.748,109.591 398.023,107.695 387.332,107.695 C376.636,107.695 366.961,109.591 358.312,113.382 C349.658,117.174 342.220,122.424 336.000,129.132 C329.774,135.840 324.962,143.669 321.562,152.611 C318.158,161.557 316.458,171.181 316.458,181.485 C316.458,192.568 318.158,202.777 321.562,212.110 C324.962,221.443 329.774,229.514 336.000,236.318 C342.220,243.126 349.658,248.472 358.312,252.359 C366.961,256.251 376.636,258.192 387.332,258.192 C398.023,258.192 407.748,256.251 416.498,252.359 C425.248,248.472 432.731,243.126 438.956,236.318 C445.177,229.514 449.989,221.443 453.394,212.110 C456.793,202.777 458.498,192.568 458.498,181.485 C458.498,171.181 456.793,161.557 453.394,152.611 ZM130.700,512.548 C137.340,519.815 145.279,525.521 154.517,529.671 C163.750,533.825 174.077,535.898 185.495,535.898 C194.416,535.898 203.085,533.772 211.491,529.515 C219.897,525.264 227.729,518.463 234.997,509.123 L267.375,532.162 C257.412,545.860 245.270,555.823 230.949,562.049 C216.628,568.276 201.373,571.389 185.183,571.389 C168.162,571.389 152.542,568.636 138.328,563.139 C124.108,557.642 111.864,549.859 101.590,539.789 C91.316,529.724 83.270,517.636 77.462,503.519 C71.649,489.407 68.745,473.738 68.745,456.508 C68.745,438.869 71.649,422.835 77.462,408.407 C83.270,393.983 91.316,381.686 101.590,371.514 C111.864,361.347 124.108,353.510 138.328,348.008 C152.542,342.511 168.162,339.758 185.183,339.758 C200.127,339.758 213.982,342.404 226.746,347.697 C239.511,352.990 251.390,361.970 262.394,374.627 L231.883,397.043 C223.788,388.326 215.952,382.518 208.378,379.609 C200.799,376.704 193.171,375.250 185.495,375.250 C174.077,375.250 163.750,377.274 154.517,381.321 C145.279,385.368 137.340,390.972 130.700,398.133 C124.055,405.293 118.918,413.651 115.289,423.195 C111.655,432.744 109.841,443.018 109.841,454.017 C109.841,465.848 111.655,476.744 115.289,486.707 C118.918,496.670 124.055,505.285 130.700,512.548 ZM224.822,260.963 C214.221,269.421 202.459,275.742 189.530,279.921 C176.597,284.105 163.910,286.192 151.468,286.192 L74.470,286.192 L74.470,79.695 L155.843,79.695 C169.451,79.695 182.576,81.787 195.218,85.966 C207.855,90.149 219.034,96.516 228.759,105.070 C238.480,113.628 246.259,124.370 252.092,137.298 C257.925,150.232 260.842,165.444 260.842,182.944 C260.842,200.639 257.488,215.952 250.779,228.880 C244.071,241.814 235.417,252.505 224.822,260.963 ZM216.509,150.861 C212.617,141.919 207.222,134.673 200.322,129.132 C193.418,123.590 185.251,119.507 175.822,116.882 C166.389,114.257 156.035,112.945 144.760,112.945 L111.219,112.945 L111.219,252.943 L138.635,252.943 C150.106,252.943 160.948,251.630 171.156,249.005 C181.364,246.380 190.260,242.297 197.843,236.755 C205.426,231.214 211.405,224.022 215.780,215.172 C220.155,206.327 222.342,195.585 222.342,182.944 C222.342,170.502 220.396,159.807 216.509,150.861 ZM651.930,499.783 L711.395,345.362 L770.548,345.362 L770.548,565.785 L733.188,565.785 L733.188,382.722 L732.565,382.722 L665.629,565.785 L638.231,565.785 L571.295,382.722 L570.672,382.722 L570.672,565.785 L533.312,565.785 L533.312,345.362 L593.088,345.362 L651.930,499.783 ZM1029.759,483.594 C1029.759,488.993 1030.586,494.646 1032.250,500.561 C1033.909,506.477 1036.657,511.925 1040.500,516.906 C1044.339,521.888 1049.422,525.988 1055.756,529.204 C1062.085,532.424 1069.921,534.030 1079.261,534.030 C1088.601,534.030 1096.433,532.424 1102.767,529.204 C1109.096,525.988 1114.179,521.888 1118.022,516.906 C1121.860,511.925 1124.609,506.477 1126.273,500.561 C1127.931,494.646 1128.763,488.993 1128.763,483.594 L1128.763,345.362 L1167.991,345.362 L1167.991,484.839 C1167.991,498.124 1165.705,510.110 1161.142,520.798 C1156.574,531.490 1150.347,540.568 1142.462,548.039 C1134.572,555.511 1125.232,561.271 1114.442,565.318 C1103.647,569.366 1091.919,571.389 1079.261,571.389 C1066.599,571.389 1054.870,569.366 1044.081,565.318 C1033.286,561.271 1023.893,555.511 1015.905,548.039 C1007.913,540.568 1001.686,531.490 997.225,520.798 C992.760,510.110 990.532,498.124 990.532,484.839 L990.532,345.362 L1029.759,345.362 L1029.759,483.594 ZM1360.577,380.854 L1293.018,380.854 L1293.018,565.785 L1253.790,565.785 L1253.790,380.854 L1186.231,380.854 L1186.231,345.362 L1360.577,345.362 L1360.577,380.854 ZM1525.424,380.854 L1418.637,380.854 L1418.637,435.026 L1519.820,435.026 L1519.820,470.518 L1418.637,470.518 L1418.637,530.294 L1531.028,530.294 L1531.028,565.785 L1379.409,565.785 L1379.409,345.362 L1525.424,345.362 L1525.424,380.854 Z" class="hover cls-1"/>
  <path d="M1484.258,82.945 L1484.258,256.192 L1447.509,256.192 L1447.509,82.945 L1384.218,82.945 L1384.218,49.695 L1547.549,49.695 L1547.549,82.945 L1484.258,82.945 ZM1351.379,230.817 C1341.654,240.347 1330.088,247.784 1316.671,253.130 C1303.255,258.475 1288.476,261.246 1272.339,261.442 C1256.393,261.442 1241.760,258.863 1228.444,253.713 C1215.123,248.563 1203.652,241.272 1194.027,231.838 C1184.403,222.409 1176.865,211.085 1171.424,197.860 C1165.978,184.639 1163.257,169.960 1163.257,153.819 C1163.257,137.294 1165.978,122.273 1171.424,108.757 C1176.865,95.245 1184.403,83.724 1194.027,74.195 C1203.652,64.670 1215.123,57.329 1228.444,52.174 C1241.760,47.025 1256.393,44.445 1272.339,44.445 C1288.476,44.254 1303.255,46.633 1316.671,51.591 C1330.088,56.549 1341.654,63.795 1351.379,73.320 C1361.100,82.849 1368.683,94.319 1374.129,107.736 C1379.570,121.152 1382.295,136.127 1382.295,152.652 C1382.295,168.794 1379.570,183.472 1374.129,196.693 C1368.683,209.918 1361.100,221.293 1351.379,230.817 ZM1338.692,122.611 C1335.288,113.669 1330.475,105.840 1324.255,99.132 C1318.029,92.424 1310.547,87.174 1301.797,83.382 C1293.047,79.591 1283.322,77.695 1272.630,77.695 C1261.935,77.695 1252.260,79.591 1243.610,83.382 C1234.956,87.174 1227.519,92.424 1221.298,99.132 C1215.073,105.840 1210.260,113.669 1206.861,122.611 C1203.456,131.557 1201.757,141.181 1201.757,151.485 C1201.757,162.568 1203.456,172.777 1206.861,182.110 C1210.260,191.443 1215.073,199.514 1221.298,206.318 C1227.519,213.126 1234.956,218.472 1243.610,222.359 C1252.260,226.251 1261.935,228.192 1272.630,228.192 C1283.322,228.192 1293.047,226.251 1301.797,222.359 C1310.547,218.472 1318.029,213.126 1324.255,206.318 C1330.475,199.514 1335.288,191.443 1338.692,182.110 C1342.092,172.777 1343.796,162.568 1343.796,151.485 C1343.796,141.181 1342.092,131.557 1338.692,122.611 ZM985.784,97.819 L985.200,97.819 L985.200,256.192 L948.451,256.192 L948.451,49.695 L997.158,49.695 L1097.199,203.109 L1097.782,203.109 L1097.782,49.695 L1134.531,49.695 L1134.531,256.192 L1087.865,256.192 L985.784,97.819 ZM968.647,379.185 C968.647,393.093 966.259,404.301 961.487,412.809 C956.710,421.322 950.279,427.909 942.184,432.579 C934.089,437.249 924.696,440.416 914.008,442.074 C903.316,443.738 892.162,444.565 880.540,444.565 L852.520,444.565 L852.520,535.785 L813.292,535.785 L813.292,315.362 L887.389,315.362 C897.975,315.362 908.195,316.403 918.056,318.475 C927.911,320.552 936.580,324.031 944.052,328.905 C951.524,333.784 957.488,340.322 961.954,348.519 C966.414,356.721 968.647,366.941 968.647,379.185 ZM923.193,363.463 C920.284,359.415 916.548,356.302 911.985,354.123 C907.417,351.943 902.333,350.543 896.729,349.920 C891.125,349.297 885.726,348.986 880.540,348.986 L852.520,348.986 L852.520,410.941 L876.181,410.941 C881.785,410.941 887.594,410.737 893.616,410.318 C899.634,409.905 905.184,408.660 910.272,406.582 C915.356,404.510 919.505,401.397 922.726,397.242 C925.941,393.093 927.551,387.280 927.551,379.808 C927.551,372.958 926.097,367.510 923.193,363.463 ZM754.210,129.902 C761.401,132.627 769.276,135.252 777.834,137.777 C786.388,140.306 794.263,143.806 801.459,148.277 C808.650,152.752 814.679,158.681 819.542,166.068 C824.400,173.460 826.833,183.276 826.833,195.526 C826.833,206.609 824.792,216.284 820.709,224.547 C816.625,232.813 811.129,239.668 804.230,245.109 C797.325,250.555 789.305,254.638 780.168,257.359 C771.026,260.079 761.401,261.442 751.293,261.442 C738.460,261.442 726.110,259.300 714.252,255.025 C702.389,250.751 692.181,243.555 683.627,233.442 L711.335,206.609 C715.806,213.418 721.689,218.713 728.981,222.505 C736.272,226.297 744.001,228.192 752.168,228.192 C756.443,228.192 760.722,227.609 765.001,226.442 C769.276,225.276 773.168,223.526 776.668,221.193 C780.168,218.859 782.984,215.897 785.126,212.297 C787.263,208.701 788.334,204.568 788.334,199.901 C788.334,192.318 785.901,186.485 781.042,182.401 C776.180,178.318 770.151,174.868 762.959,172.047 C755.764,169.231 747.889,166.556 739.335,164.027 C730.776,161.502 722.901,158.048 715.710,153.673 C708.514,149.298 702.485,143.465 697.627,136.173 C692.765,128.881 690.336,119.111 690.336,106.861 C690.336,96.170 692.523,86.932 696.898,79.153 C701.273,71.378 707.006,64.912 714.106,59.758 C721.202,54.608 729.318,50.766 738.460,48.237 C747.597,45.712 756.930,44.445 766.459,44.445 C777.347,44.445 787.897,46.100 798.105,49.403 C808.313,52.712 817.500,58.153 825.667,65.737 L798.834,94.028 C794.942,88.391 789.742,84.257 783.230,81.632 C776.713,79.007 769.859,77.695 762.668,77.695 C758.389,77.695 754.255,78.182 750.272,79.153 C746.285,80.128 742.689,81.682 739.481,83.820 C736.272,85.962 733.693,88.732 731.752,92.132 C729.806,95.536 728.835,99.569 728.835,104.236 C728.835,111.236 731.264,116.586 736.127,120.277 C740.985,123.973 747.014,127.182 754.210,129.902 ZM525.257,49.695 L662.047,49.695 L662.047,82.945 L562.006,82.945 L562.006,133.694 L656.797,133.694 L656.797,166.943 L562.006,166.943 L562.006,222.943 L667.296,222.943 L667.296,256.192 L525.257,256.192 L525.257,49.695 ZM469.741,508.700 C459.360,518.871 447.013,526.810 432.692,532.516 C418.371,538.223 402.595,541.180 385.369,541.389 C368.348,541.389 352.728,538.636 338.514,533.139 C324.295,527.642 312.051,519.859 301.777,509.789 C291.503,499.724 283.457,487.636 277.648,473.519 C271.835,459.407 268.931,443.738 268.931,426.508 C268.931,408.869 271.835,392.835 277.648,378.407 C283.457,363.983 291.503,351.686 301.777,341.514 C312.051,331.347 324.295,323.510 338.514,318.008 C352.728,312.511 368.348,309.758 385.369,309.758 C402.595,309.554 418.371,312.093 432.692,317.386 C447.013,322.678 459.360,330.413 469.741,340.580 C480.117,350.752 488.211,362.996 494.024,377.317 C499.833,391.638 502.742,407.623 502.742,425.262 C502.742,442.493 499.833,458.161 494.024,472.274 C488.211,486.391 480.117,498.533 469.741,508.700 ZM456.198,393.195 C452.564,383.651 447.427,375.293 440.787,368.133 C434.142,360.972 426.154,355.368 416.814,351.321 C407.474,347.274 397.093,345.250 385.681,345.250 C374.264,345.250 363.936,347.274 354.703,351.321 C345.465,355.368 337.526,360.972 330.886,368.133 C324.241,375.293 319.104,383.651 315.475,393.195 C311.841,402.744 310.027,413.018 310.027,424.017 C310.027,435.848 311.841,446.744 315.475,456.707 C319.104,466.670 324.241,475.285 330.886,482.548 C337.526,489.815 345.465,495.521 354.703,499.671 C363.936,503.825 374.264,505.898 385.681,505.898 C397.093,505.898 407.474,503.825 416.814,499.671 C426.154,495.521 434.142,489.815 440.787,482.548 C447.427,475.285 452.564,466.670 456.198,456.707 C459.827,446.744 461.646,435.848 461.646,424.017 C461.646,413.018 459.827,402.744 456.198,393.195 ZM466.081,230.817 C456.356,240.347 444.790,247.784 431.373,253.130 C417.957,258.475 403.178,261.246 387.040,261.442 C371.095,261.442 356.461,258.863 343.145,253.713 C329.824,248.563 318.354,241.272 308.729,231.838 C299.104,222.409 291.567,211.085 286.125,197.860 C280.679,184.639 277.959,169.960 277.959,153.819 C277.959,137.294 280.679,122.273 286.125,108.757 C291.567,95.245 299.104,83.724 308.729,74.195 C318.354,64.670 329.824,57.329 343.145,52.174 C356.461,47.025 371.095,44.445 387.040,44.445 C403.178,44.254 417.957,46.633 431.373,51.591 C444.790,56.549 456.356,63.795 466.081,73.320 C475.801,82.849 483.385,94.319 488.831,107.736 C494.272,121.152 496.997,136.127 496.997,152.652 C496.997,168.794 494.272,183.472 488.831,196.693 C483.385,209.918 475.801,221.293 466.081,230.817 ZM453.394,122.611 C449.989,113.669 445.177,105.840 438.956,99.132 C432.731,92.424 425.248,87.174 416.498,83.382 C407.748,79.591 398.023,77.695 387.332,77.695 C376.636,77.695 366.961,79.591 358.312,83.382 C349.658,87.174 342.220,92.424 336.000,99.132 C329.774,105.840 324.962,113.669 321.562,122.611 C318.158,131.557 316.458,141.181 316.458,151.485 C316.458,162.568 318.158,172.777 321.562,182.110 C324.962,191.443 329.774,199.514 336.000,206.318 C342.220,213.126 349.658,218.472 358.312,222.359 C366.961,226.251 376.636,228.192 387.332,228.192 C398.023,228.192 407.748,226.251 416.498,222.359 C425.248,218.472 432.731,213.126 438.956,206.318 C445.177,199.514 449.989,191.443 453.394,182.110 C456.793,172.777 458.498,162.568 458.498,151.485 C458.498,141.181 456.793,131.557 453.394,122.611 ZM130.700,482.548 C137.340,489.815 145.279,495.521 154.517,499.671 C163.750,503.825 174.077,505.898 185.495,505.898 C194.416,505.898 203.085,503.772 211.491,499.515 C219.897,495.264 227.729,488.463 234.997,479.123 L267.375,502.162 C257.412,515.860 245.270,525.823 230.949,532.049 C216.628,538.276 201.373,541.389 185.183,541.389 C168.162,541.389 152.542,538.636 138.328,533.139 C124.108,527.642 111.864,519.859 101.590,509.789 C91.316,499.724 83.270,487.636 77.462,473.519 C71.649,459.407 68.745,443.738 68.745,426.508 C68.745,408.869 71.649,392.835 77.462,378.407 C83.270,363.983 91.316,351.686 101.590,341.514 C111.864,331.347 124.108,323.510 138.328,318.008 C152.542,312.511 168.162,309.758 185.183,309.758 C200.127,309.758 213.982,312.404 226.746,317.697 C239.511,322.990 251.390,331.970 262.394,344.627 L231.883,367.043 C223.788,358.326 215.952,352.518 208.378,349.609 C200.799,346.704 193.171,345.250 185.495,345.250 C174.077,345.250 163.750,347.274 154.517,351.321 C145.279,355.368 137.340,360.972 130.700,368.133 C124.055,375.293 118.918,383.651 115.289,393.195 C111.655,402.744 109.841,413.018 109.841,424.017 C109.841,435.848 111.655,446.744 115.289,456.707 C118.918,466.670 124.055,475.285 130.700,482.548 ZM224.822,230.963 C214.221,239.421 202.459,245.742 189.530,249.921 C176.597,254.105 163.910,256.192 151.468,256.192 L74.470,256.192 L74.470,49.695 L155.843,49.695 C169.451,49.695 182.576,51.787 195.218,55.966 C207.855,60.149 219.034,66.516 228.759,75.070 C238.480,83.628 246.259,94.370 252.092,107.298 C257.925,120.232 260.842,135.444 260.842,152.944 C260.842,170.639 257.488,185.952 250.779,198.880 C244.071,211.814 235.417,222.505 224.822,230.963 ZM216.509,120.861 C212.617,111.919 207.222,104.673 200.322,99.132 C193.418,93.590 185.251,89.507 175.822,86.882 C166.389,84.257 156.035,82.945 144.760,82.945 L111.219,82.945 L111.219,222.943 L138.635,222.943 C150.106,222.943 160.948,221.630 171.156,219.005 C181.364,216.380 190.260,212.297 197.843,206.755 C205.426,201.214 211.405,194.022 215.780,185.172 C220.155,176.327 222.342,165.585 222.342,152.944 C222.342,140.502 220.396,129.807 216.509,120.861 ZM651.930,469.783 L711.395,315.362 L770.548,315.362 L770.548,535.785 L733.188,535.785 L733.188,352.722 L732.565,352.722 L665.629,535.785 L638.231,535.785 L571.295,352.722 L570.672,352.722 L570.672,535.785 L533.312,535.785 L533.312,315.362 L593.088,315.362 L651.930,469.783 ZM1029.759,453.594 C1029.759,458.993 1030.586,464.646 1032.250,470.561 C1033.909,476.477 1036.657,481.925 1040.500,486.906 C1044.339,491.888 1049.422,495.988 1055.756,499.204 C1062.085,502.424 1069.921,504.030 1079.261,504.030 C1088.601,504.030 1096.433,502.424 1102.767,499.204 C1109.096,495.988 1114.179,491.888 1118.022,486.906 C1121.860,481.925 1124.609,476.477 1126.273,470.561 C1127.931,464.646 1128.763,458.993 1128.763,453.594 L1128.763,315.362 L1167.991,315.362 L1167.991,454.839 C1167.991,468.124 1165.705,480.110 1161.142,490.798 C1156.574,501.490 1150.347,510.568 1142.462,518.039 C1134.572,525.511 1125.232,531.271 1114.442,535.318 C1103.647,539.366 1091.919,541.389 1079.261,541.389 C1066.599,541.389 1054.870,539.366 1044.081,535.318 C1033.286,531.271 1023.893,525.511 1015.905,518.039 C1007.913,510.568 1001.686,501.490 997.225,490.798 C992.760,480.110 990.532,468.124 990.532,454.839 L990.532,315.362 L1029.759,315.362 L1029.759,453.594 ZM1360.577,350.854 L1293.018,350.854 L1293.018,535.785 L1253.790,535.785 L1253.790,350.854 L1186.231,350.854 L1186.231,315.362 L1360.577,315.362 L1360.577,350.854 ZM1525.424,350.854 L1418.637,350.854 L1418.637,405.026 L1519.820,405.026 L1519.820,440.518 L1418.637,440.518 L1418.637,500.294 L1531.028,500.294 L1531.028,535.785 L1379.409,535.785 L1379.409,315.362 L1525.424,315.362 L1525.424,350.854 Z" class="hover cls-2"/>
  <path d="M1484.258,90.945 L1484.258,264.192 L1447.509,264.192 L1447.509,90.945 L1384.218,90.945 L1384.218,57.695 L1547.549,57.695 L1547.549,90.945 L1484.258,90.945 ZM1351.379,238.817 C1341.654,248.347 1330.088,255.784 1316.671,261.130 C1303.255,266.475 1288.476,269.246 1272.339,269.442 C1256.393,269.442 1241.760,266.863 1228.444,261.713 C1215.123,256.563 1203.652,249.272 1194.027,239.838 C1184.403,230.409 1176.865,219.085 1171.424,205.860 C1165.978,192.639 1163.257,177.960 1163.257,161.819 C1163.257,145.294 1165.978,130.273 1171.424,116.757 C1176.865,103.245 1184.403,91.724 1194.027,82.195 C1203.652,72.670 1215.123,65.329 1228.444,60.174 C1241.760,55.025 1256.393,52.445 1272.339,52.445 C1288.476,52.254 1303.255,54.633 1316.671,59.591 C1330.088,64.549 1341.654,71.795 1351.379,81.320 C1361.100,90.849 1368.683,102.319 1374.129,115.736 C1379.570,129.152 1382.295,144.127 1382.295,160.652 C1382.295,176.794 1379.570,191.472 1374.129,204.693 C1368.683,217.918 1361.100,229.293 1351.379,238.817 ZM1338.692,130.611 C1335.288,121.669 1330.475,113.840 1324.255,107.132 C1318.029,100.424 1310.547,95.174 1301.797,91.382 C1293.047,87.591 1283.322,85.695 1272.630,85.695 C1261.935,85.695 1252.260,87.591 1243.610,91.382 C1234.956,95.174 1227.519,100.424 1221.298,107.132 C1215.073,113.840 1210.260,121.669 1206.861,130.611 C1203.456,139.557 1201.757,149.181 1201.757,159.485 C1201.757,170.568 1203.456,180.777 1206.861,190.110 C1210.260,199.443 1215.073,207.514 1221.298,214.318 C1227.519,221.126 1234.956,226.472 1243.610,230.359 C1252.260,234.251 1261.935,236.192 1272.630,236.192 C1283.322,236.192 1293.047,234.251 1301.797,230.359 C1310.547,226.472 1318.029,221.126 1324.255,214.318 C1330.475,207.514 1335.288,199.443 1338.692,190.110 C1342.092,180.777 1343.796,170.568 1343.796,159.485 C1343.796,149.181 1342.092,139.557 1338.692,130.611 ZM985.784,105.819 L985.200,105.819 L985.200,264.192 L948.451,264.192 L948.451,57.695 L997.158,57.695 L1097.199,211.109 L1097.782,211.109 L1097.782,57.695 L1134.531,57.695 L1134.531,264.192 L1087.865,264.192 L985.784,105.819 ZM968.647,387.185 C968.647,401.093 966.259,412.301 961.487,420.809 C956.710,429.322 950.279,435.909 942.184,440.579 C934.089,445.249 924.696,448.416 914.008,450.074 C903.316,451.738 892.162,452.565 880.540,452.565 L852.520,452.565 L852.520,543.785 L813.292,543.785 L813.292,323.362 L887.389,323.362 C897.975,323.362 908.195,324.403 918.056,326.475 C927.911,328.552 936.580,332.031 944.052,336.905 C951.524,341.784 957.488,348.322 961.954,356.519 C966.414,364.721 968.647,374.941 968.647,387.185 ZM923.193,371.463 C920.284,367.415 916.548,364.302 911.985,362.123 C907.417,359.943 902.333,358.543 896.729,357.920 C891.125,357.297 885.726,356.986 880.540,356.986 L852.520,356.986 L852.520,418.941 L876.181,418.941 C881.785,418.941 887.594,418.737 893.616,418.318 C899.634,417.905 905.184,416.660 910.272,414.582 C915.356,412.510 919.505,409.397 922.726,405.242 C925.941,401.093 927.551,395.280 927.551,387.808 C927.551,380.958 926.097,375.510 923.193,371.463 ZM754.210,137.902 C761.401,140.627 769.276,143.252 777.834,145.777 C786.388,148.306 794.263,151.806 801.459,156.277 C808.650,160.752 814.679,166.681 819.542,174.068 C824.400,181.460 826.833,191.276 826.833,203.526 C826.833,214.609 824.792,224.284 820.709,232.547 C816.625,240.813 811.129,247.668 804.230,253.109 C797.325,258.555 789.305,262.638 780.168,265.359 C771.026,268.079 761.401,269.442 751.293,269.442 C738.460,269.442 726.110,267.300 714.252,263.025 C702.389,258.751 692.181,251.555 683.627,241.442 L711.335,214.609 C715.806,221.418 721.689,226.713 728.981,230.505 C736.272,234.297 744.001,236.192 752.168,236.192 C756.443,236.192 760.722,235.609 765.001,234.442 C769.276,233.276 773.168,231.526 776.668,229.193 C780.168,226.859 782.984,223.897 785.126,220.297 C787.263,216.701 788.334,212.568 788.334,207.901 C788.334,200.318 785.901,194.485 781.042,190.401 C776.180,186.318 770.151,182.868 762.959,180.047 C755.764,177.231 747.889,174.556 739.335,172.027 C730.776,169.502 722.901,166.048 715.710,161.673 C708.514,157.298 702.485,151.465 697.627,144.173 C692.765,136.881 690.336,127.111 690.336,114.861 C690.336,104.170 692.523,94.932 696.898,87.153 C701.273,79.378 707.006,72.912 714.106,67.758 C721.202,62.608 729.318,58.766 738.460,56.237 C747.597,53.712 756.930,52.445 766.459,52.445 C777.347,52.445 787.897,54.100 798.105,57.403 C808.313,60.712 817.500,66.153 825.667,73.737 L798.834,102.028 C794.942,96.391 789.742,92.257 783.230,89.632 C776.713,87.007 769.859,85.695 762.668,85.695 C758.389,85.695 754.255,86.182 750.272,87.153 C746.285,88.128 742.689,89.682 739.481,91.820 C736.272,93.962 733.693,96.732 731.752,100.132 C729.806,103.536 728.835,107.569 728.835,112.236 C728.835,119.236 731.264,124.586 736.127,128.277 C740.985,131.973 747.014,135.182 754.210,137.902 ZM525.257,57.695 L662.047,57.695 L662.047,90.945 L562.006,90.945 L562.006,141.694 L656.797,141.694 L656.797,174.943 L562.006,174.943 L562.006,230.943 L667.296,230.943 L667.296,264.192 L525.257,264.192 L525.257,57.695 ZM469.741,516.700 C459.360,526.871 447.013,534.810 432.692,540.516 C418.371,546.223 402.595,549.180 385.369,549.389 C368.348,549.389 352.728,546.636 338.514,541.139 C324.295,535.642 312.051,527.859 301.777,517.789 C291.503,507.724 283.457,495.636 277.648,481.519 C271.835,467.407 268.931,451.738 268.931,434.508 C268.931,416.869 271.835,400.835 277.648,386.407 C283.457,371.983 291.503,359.686 301.777,349.514 C312.051,339.347 324.295,331.510 338.514,326.008 C352.728,320.511 368.348,317.758 385.369,317.758 C402.595,317.554 418.371,320.093 432.692,325.386 C447.013,330.678 459.360,338.413 469.741,348.580 C480.117,358.752 488.211,370.996 494.024,385.317 C499.833,399.638 502.742,415.623 502.742,433.262 C502.742,450.493 499.833,466.161 494.024,480.274 C488.211,494.391 480.117,506.533 469.741,516.700 ZM456.198,401.195 C452.564,391.651 447.427,383.293 440.787,376.133 C434.142,368.972 426.154,363.368 416.814,359.321 C407.474,355.274 397.093,353.250 385.681,353.250 C374.264,353.250 363.936,355.274 354.703,359.321 C345.465,363.368 337.526,368.972 330.886,376.133 C324.241,383.293 319.104,391.651 315.475,401.195 C311.841,410.744 310.027,421.018 310.027,432.017 C310.027,443.848 311.841,454.744 315.475,464.707 C319.104,474.670 324.241,483.285 330.886,490.548 C337.526,497.815 345.465,503.521 354.703,507.671 C363.936,511.825 374.264,513.898 385.681,513.898 C397.093,513.898 407.474,511.825 416.814,507.671 C426.154,503.521 434.142,497.815 440.787,490.548 C447.427,483.285 452.564,474.670 456.198,464.707 C459.827,454.744 461.646,443.848 461.646,432.017 C461.646,421.018 459.827,410.744 456.198,401.195 ZM466.081,238.817 C456.356,248.347 444.790,255.784 431.373,261.130 C417.957,266.475 403.178,269.246 387.040,269.442 C371.095,269.442 356.461,266.863 343.145,261.713 C329.824,256.563 318.354,249.272 308.729,239.838 C299.104,230.409 291.567,219.085 286.125,205.860 C280.679,192.639 277.959,177.960 277.959,161.819 C277.959,145.294 280.679,130.273 286.125,116.757 C291.567,103.245 299.104,91.724 308.729,82.195 C318.354,72.670 329.824,65.329 343.145,60.174 C356.461,55.025 371.095,52.445 387.040,52.445 C403.178,52.254 417.957,54.633 431.373,59.591 C444.790,64.549 456.356,71.795 466.081,81.320 C475.801,90.849 483.385,102.319 488.831,115.736 C494.272,129.152 496.997,144.127 496.997,160.652 C496.997,176.794 494.272,191.472 488.831,204.693 C483.385,217.918 475.801,229.293 466.081,238.817 ZM453.394,130.611 C449.989,121.669 445.177,113.840 438.956,107.132 C432.731,100.424 425.248,95.174 416.498,91.382 C407.748,87.591 398.023,85.695 387.332,85.695 C376.636,85.695 366.961,87.591 358.312,91.382 C349.658,95.174 342.220,100.424 336.000,107.132 C329.774,113.840 324.962,121.669 321.562,130.611 C318.158,139.557 316.458,149.181 316.458,159.485 C316.458,170.568 318.158,180.777 321.562,190.110 C324.962,199.443 329.774,207.514 336.000,214.318 C342.220,221.126 349.658,226.472 358.312,230.359 C366.961,234.251 376.636,236.192 387.332,236.192 C398.023,236.192 407.748,234.251 416.498,230.359 C425.248,226.472 432.731,221.126 438.956,214.318 C445.177,207.514 449.989,199.443 453.394,190.110 C456.793,180.777 458.498,170.568 458.498,159.485 C458.498,149.181 456.793,139.557 453.394,130.611 ZM130.700,490.548 C137.340,497.815 145.279,503.521 154.517,507.671 C163.750,511.825 174.077,513.898 185.495,513.898 C194.416,513.898 203.085,511.772 211.491,507.515 C219.897,503.264 227.729,496.463 234.997,487.123 L267.375,510.162 C257.412,523.860 245.270,533.823 230.949,540.049 C216.628,546.276 201.373,549.389 185.183,549.389 C168.162,549.389 152.542,546.636 138.328,541.139 C124.108,535.642 111.864,527.859 101.590,517.789 C91.316,507.724 83.270,495.636 77.462,481.519 C71.649,467.407 68.745,451.738 68.745,434.508 C68.745,416.869 71.649,400.835 77.462,386.407 C83.270,371.983 91.316,359.686 101.590,349.514 C111.864,339.347 124.108,331.510 138.328,326.008 C152.542,320.511 168.162,317.758 185.183,317.758 C200.127,317.758 213.982,320.404 226.746,325.697 C239.511,330.990 251.390,339.970 262.394,352.627 L231.883,375.043 C223.788,366.326 215.952,360.518 208.378,357.609 C200.799,354.704 193.171,353.250 185.495,353.250 C174.077,353.250 163.750,355.274 154.517,359.321 C145.279,363.368 137.340,368.972 130.700,376.133 C124.055,383.293 118.918,391.651 115.289,401.195 C111.655,410.744 109.841,421.018 109.841,432.017 C109.841,443.848 111.655,454.744 115.289,464.707 C118.918,474.670 124.055,483.285 130.700,490.548 ZM224.822,238.963 C214.221,247.421 202.459,253.742 189.530,257.921 C176.597,262.105 163.910,264.192 151.468,264.192 L74.470,264.192 L74.470,57.695 L155.843,57.695 C169.451,57.695 182.576,59.787 195.218,63.966 C207.855,68.149 219.034,74.516 228.759,83.070 C238.480,91.628 246.259,102.370 252.092,115.298 C257.925,128.232 260.842,143.444 260.842,160.944 C260.842,178.639 257.488,193.952 250.779,206.880 C244.071,219.814 235.417,230.505 224.822,238.963 ZM216.509,128.861 C212.617,119.919 207.222,112.673 200.322,107.132 C193.418,101.590 185.251,97.507 175.822,94.882 C166.389,92.257 156.035,90.945 144.760,90.945 L111.219,90.945 L111.219,230.943 L138.635,230.943 C150.106,230.943 160.948,229.630 171.156,227.005 C181.364,224.380 190.260,220.297 197.843,214.755 C205.426,209.214 211.405,202.022 215.780,193.172 C220.155,184.327 222.342,173.585 222.342,160.944 C222.342,148.502 220.396,137.807 216.509,128.861 ZM651.930,477.783 L711.395,323.362 L770.548,323.362 L770.548,543.785 L733.188,543.785 L733.188,360.722 L732.565,360.722 L665.629,543.785 L638.231,543.785 L571.295,360.722 L570.672,360.722 L570.672,543.785 L533.312,543.785 L533.312,323.362 L593.088,323.362 L651.930,477.783 ZM1029.759,461.594 C1029.759,466.993 1030.586,472.646 1032.250,478.561 C1033.909,484.477 1036.657,489.925 1040.500,494.906 C1044.339,499.888 1049.422,503.988 1055.756,507.204 C1062.085,510.424 1069.921,512.030 1079.261,512.030 C1088.601,512.030 1096.433,510.424 1102.767,507.204 C1109.096,503.988 1114.179,499.888 1118.022,494.906 C1121.860,489.925 1124.609,484.477 1126.273,478.561 C1127.931,472.646 1128.763,466.993 1128.763,461.594 L1128.763,323.362 L1167.991,323.362 L1167.991,462.839 C1167.991,476.124 1165.705,488.110 1161.142,498.798 C1156.574,509.490 1150.347,518.568 1142.462,526.039 C1134.572,533.511 1125.232,539.271 1114.442,543.318 C1103.647,547.366 1091.919,549.389 1079.261,549.389 C1066.599,549.389 1054.870,547.366 1044.081,543.318 C1033.286,539.271 1023.893,533.511 1015.905,526.039 C1007.913,518.568 1001.686,509.490 997.225,498.798 C992.760,488.110 990.532,476.124 990.532,462.839 L990.532,323.362 L1029.759,323.362 L1029.759,461.594 ZM1360.577,358.854 L1293.018,358.854 L1293.018,543.785 L1253.790,543.785 L1253.790,358.854 L1186.231,358.854 L1186.231,323.362 L1360.577,323.362 L1360.577,358.854 ZM1525.424,358.854 L1418.637,358.854 L1418.637,413.026 L1519.820,413.026 L1519.820,448.518 L1418.637,448.518 L1418.637,508.294 L1531.028,508.294 L1531.028,543.785 L1379.409,543.785 L1379.409,323.362 L1525.424,323.362 L1525.424,358.854 Z" class="hover cls-3"/>
</svg>
