<?xml version="1.0" encoding="utf-8"?>
<!-- Generator: Adobe Illustrator 18.0.0, SVG Export Plug-In . SVG Version: 6.00 Build 0)  -->
<!DOCTYPE svg PUBLIC "-//W3C//DTD SVG 1.1//EN" "http://www.w3.org/Graphics/SVG/1.1/DTD/svg11.dtd">
<svg version="1.1" id="Layer_1" xmlns="http://www.w3.org/2000/svg" xmlns:xlink="http://www.w3.org/1999/xlink" x="0px" y="0px"
	 width="285.1px" height="52.4px" viewBox="0 0 285.1 52.4" style="enable-background:new 0 0 285.1 52.4;" xml:space="preserve">
<style type="text/css">
	.st0{fill:#F4F4F4;}
</style>
<g>
	<path class="hover st0" d="M4.8,40.6V14.4H0v-2.8h4.8V9c0-5.6,3-9,7.9-9c2,0,3.7,0.4,5.5,2l-1.5,2.3c-1-0.9-2.2-1.5-3.7-1.5
		C9.7,2.8,8,5.1,8,9v2.6h5.9v2.8H8v26.2H4.8z"/>
	<path class="hover st0" d="M37.5,40.6v-3.4c-2.6,2.8-5.8,4.1-9.8,4.1c-5,0-10.1-3.4-10.1-9.7c0-6.3,5.1-9.6,10.1-9.6c4,0,7.3,1.3,9.8,4.1
		v-5.9c0-4.3-3.5-6.7-7.7-6.7c-3.7,0-6.5,1.3-9.1,4.3l-1.7-2.2c3-3.2,6.4-4.9,11.2-4.9c5.9,0,10.6,2.8,10.6,9.3v20.4H37.5z
		 M37.5,34.9v-6.4c-2-2.7-5.3-4-8.8-4c-4.7,0-7.9,3.1-7.9,7.2c0,4.1,3.2,7.1,7.9,7.1C32.2,38.9,35.5,37.6,37.5,34.9z"/>
	<path class="hover st0" d="M69.3,40.6V21c0-5.6-2.8-7.3-7-7.3c-3.7,0-7.6,2.3-9.4,5v21.9h-3.1v-29h3.1V16c2.1-2.5,6.2-5.1,10.4-5.1
		c5.9,0,9.1,2.9,9.1,9.4v20.3H69.3z"/>
	<path class="hover st0" d="M79.9,26.1c0-8.5,5.5-15.2,14-15.2c5,0,7.9,2,10.3,4.9l-2.2,1.9c-2.1-2.9-4.7-4-7.9-4
		c-6.8,0-10.9,5.4-10.9,12.4c0,7,4.1,12.4,10.9,12.4c3.2,0,5.8-1.2,7.9-4.1l2.2,1.9c-2.3,3-5.2,5-10.3,5
		C85.4,41.3,79.9,34.6,79.9,26.1z"/>
	<path class="hover st0" d="M109.2,49.1c0.7,0.3,1.8,0.5,2.5,0.5c1.9,0,3.2-0.8,4.4-3.5l2.3-5.2l-12.3-29.2h3.5L120.2,37l10.4-25.3h3.5
		l-15,35.3c-1.6,3.7-4,5.4-7.4,5.4c-1,0-2.3-0.2-3.1-0.4L109.2,49.1z"/>
	<path class="hover st0" d="M136.3,36.7l1.9-2.3c1.9,2.3,5.3,4.3,9.4,4.3c4.9,0,7.7-2.5,7.7-5.9c0-7.9-18.3-3.4-18.3-13.9
		c0-4.4,3.8-8,10.3-8c5,0,8.3,1.9,10.4,4.3l-1.7,2.2c-1.7-2.3-4.8-3.8-8.6-3.8c-4.5,0-7.2,2.3-7.2,5.3c0,7.3,18.2,2.8,18.2,14
		c0,4.7-3.6,8.5-10.9,8.5C142.8,41.3,139.2,40,136.3,36.7z"/>
	<path class="hover st0" d="M164.2,26.1c0-8.4,5.9-15.2,13.9-15.2c8.8,0,13.7,7,13.7,15.4v0.8h-24.2c0.3,6.3,4.5,11.5,11.3,11.5
		c3.7,0,7-1.4,9.5-4l1.6,2c-2.9,3-6.5,4.7-11.3,4.7C170.2,41.3,164.2,35,164.2,26.1z M178,13.6c-6.8,0-10.3,6-10.5,11h21.1
		C188.5,19.7,185.3,13.6,178,13.6z"/>
	<path class="hover st0" d="M199.2,40.6v-40h3.1v40H199.2z"/>
	<path class="hover st0" d="M209.8,26.1c0-8.4,5.9-15.2,13.9-15.2c8.8,0,13.7,7,13.7,15.4v0.8h-24.2c0.3,6.3,4.5,11.5,11.3,11.5
		c3.7,0,7-1.4,9.5-4l1.6,2c-2.9,3-6.5,4.7-11.3,4.7C215.8,41.3,209.8,35,209.8,26.1z M223.7,13.6c-6.8,0-10.3,6-10.5,11h21.1
		C234.2,19.7,230.9,13.6,223.7,13.6z"/>
	<path class="hover st0" d="M243.2,26.1c0-8.5,5.5-15.2,14-15.2c5,0,7.9,2,10.3,4.9l-2.2,1.9c-2.1-2.9-4.7-4-7.9-4
		c-6.8,0-10.9,5.4-10.9,12.4c0,7,4.1,12.4,10.9,12.4c3.2,0,5.8-1.2,7.9-4.1l2.2,1.9c-2.3,3-5.2,5-10.3,5
		C248.8,41.3,243.2,34.6,243.2,26.1z"/>
	<path class="hover st0" d="M274.5,35V14.4h-4.8v-2.8h4.8V3.7h3.2v7.9h5.9v2.8h-5.9v20.2c0,2.3,1,4,3,4c1.4,0,2.6-0.7,3.2-1.4l1.2,2.4
		c-1.1,1.1-2.5,1.8-4.9,1.8C276.4,41.3,274.5,39,274.5,35z"/>
</g>
</svg>
