<?xml version="1.0" encoding="utf-8"?>
<!-- Generator: Adobe Illustrator 18.0.0, SVG Export Plug-In . SVG Version: 6.00 Build 0)  -->
<!DOCTYPE svg PUBLIC "-//W3C//DTD SVG 1.1//EN" "http://www.w3.org/Graphics/SVG/1.1/DTD/svg11.dtd">
<svg version="1.1" id="Layer_1" xmlns="http://www.w3.org/2000/svg" xmlns:xlink="http://www.w3.org/1999/xlink" x="0px" y="0px"
	 width="70px" height="78.7px" viewBox="0 0 70 78.7" style="enable-background:new 0 0 70 78.7;" xml:space="preserve">
<style type="text/css">
	.st0{fill:#FFFFFF;}
</style>
<path class="hover st0" d="M35,78.7c-1.3,0-2.6-0.3-3.7-0.9L3.6,61.7C1.6,60.5,0,57.8,0,55.4V23.3c0-2.4,1.6-5.1,3.6-6.3L31.3,0.9
	c2-1.2,5.3-1.2,7.3,0l27.7,16.1c2.1,1.2,3.6,3.9,3.6,6.3v32.2c0,2.4-1.6,5.1-3.6,6.3L38.7,77.8C37.6,78.4,36.3,78.7,35,78.7z M35,4
	c-0.6,0-1.3,0.1-1.6,0.4L5.6,20.4C4.8,20.9,4,22.3,4,23.3v32.2c0,1,0.8,2.4,1.6,2.9l27.7,16.1c0.8,0.5,2.5,0.5,3.3,0l27.7-16.1
	c0.8-0.5,1.6-1.9,1.6-2.9V23.3c0-1-0.8-2.4-1.6-2.9L36.7,4.3C36.3,4.1,35.6,4,35,4z"/>
<g>
	<path class="hover st0" d="M24.5,51.4h-4.1v-25h14.1v3.5h-10v7.8h9.4v3.5h-9.4V51.4z"/>
	<path class="hover st0" d="M51.4,46c0,1.8-0.7,3.3-2,4.2c-1.3,1-3.3,1.5-5.8,1.5c-2.5,0-4.5-0.4-6.1-1.1v-3.5c2.2,1,4.3,1.5,6.2,1.5
		c2.5,0,3.7-0.7,3.7-2.2c0-0.5-0.1-0.9-0.4-1.2c-0.3-0.3-0.7-0.6-1.3-1c-0.6-0.3-1.5-0.7-2.6-1.2c-2.2-0.8-3.6-1.7-4.4-2.5
		c-0.8-0.8-1.2-1.9-1.2-3.3c0-1.6,0.7-2.9,2-3.8c1.3-0.9,3.1-1.3,5.3-1.3c2.2,0,4.3,0.5,6.3,1.4l-1.3,3c-2-0.8-3.8-1.3-5.1-1.3
		c-2.1,0-3.2,0.6-3.2,1.8c0,0.6,0.3,1.1,0.8,1.5c0.6,0.4,1.8,1,3.6,1.7c1.6,0.6,2.7,1.2,3.4,1.7c0.7,0.5,1.2,1.1,1.6,1.7
		S51.4,45.1,51.4,46z"/>
</g>
</svg>
