<?xml version="1.0" encoding="utf-8"?>
<!-- Generator: Adobe Illustrator 18.0.0, SVG Export Plug-In . SVG Version: 6.00 Build 0)  -->
<!DOCTYPE svg PUBLIC "-//W3C//DTD SVG 1.1//EN" "http://www.w3.org/Graphics/SVG/1.1/DTD/svg11.dtd">
<svg version="1.1" id="Layer_1" xmlns="http://www.w3.org/2000/svg" xmlns:xlink="http://www.w3.org/1999/xlink" x="0px" y="0px"
	 width="207.3px" height="48.9px" viewBox="0 0 207.3 48.9" style="enable-background:new 0 0 207.3 48.9;" xml:space="preserve">
<g>
	<path class="hover" style="fill:#F4F4F4;" d="M0,43.3l2.2-2.7c2.2,2.8,6.3,5.1,11.2,5.1c5.8,0,9.3-3,9.3-7.1c0-9.5-22-4.1-22-16.6
		c0-5.3,4.5-9.6,12.4-9.6c6,0,9.9,2.3,12.5,5.1l-2.1,2.7c-2-2.7-5.8-4.6-10.4-4.6c-5.4,0-8.6,2.7-8.6,6.3c0,8.7,21.9,3.4,21.9,16.8
		c0,5.6-4.3,10.2-13,10.2C7.8,48.9,3.5,47.2,0,43.3z"/>
	<path class="hover" style="fill:#F4F4F4;" d="M58.8,48v-5.1c-2.8,3.2-7.5,6-12.5,6c-7.1,0-10.9-3.3-10.9-11.2V13.2h3.7v23.6
		c0,6.8,3.4,8.6,8.4,8.6c4.5,0,9-2.7,11.3-5.8V13.2h3.7V48H58.8z"/>
	<path class="hover" style="fill:#F4F4F4;" d="M97,48V24.5c0-6.7-3.4-8.7-8.4-8.7c-4.5,0-9.1,2.8-11.3,6V48h-3.7V13.2h3.7v5.3
		c2.5-3,7.5-6.1,12.5-6.1c7.1,0,10.9,3.5,10.9,11.3V48H97z"/>
	<path class="hover" style="fill:#F4F4F4;" d="M137.3,48v-5.5c-2.4,3.6-6.9,6.4-12.1,6.4c-9.2,0-15.5-7.1-15.5-18.2c0-11,6.3-18.3,15.5-18.3
		c5,0,9.4,2.5,12.1,6.5V0h3.8v48H137.3z M137.3,39.3V22.1c-2-3.4-6.6-6.3-11.4-6.3c-7.7,0-12.2,6.5-12.2,14.9s4.5,14.8,12.2,14.8
		C130.8,45.5,135.3,42.6,137.3,39.3z"/>
	<path class="hover" style="fill:#F4F4F4;" d="M151.1,4.9c0-1.6,1.4-2.8,2.9-2.8c1.6,0,2.9,1.2,2.9,2.8s-1.3,2.9-2.9,2.9
		C152.4,7.8,151.1,6.5,151.1,4.9z M152.1,48V13.2h3.7V48H152.1z"/>
	<path class="hover" style="fill:#F4F4F4;" d="M188.9,48v-4.1c-3.1,3.4-7,5-11.8,5c-6,0-12.2-4.1-12.2-11.6c0-7.6,6.1-11.5,12.2-11.5
		c4.8,0,8.8,1.6,11.8,5v-7.1c0-5.2-4.2-8-9.3-8c-4.4,0-7.8,1.5-10.9,5.1l-2.1-2.6c3.6-3.9,7.6-5.8,13.4-5.8
		c7.1,0,12.7,3.4,12.7,11.2V48H188.9z M188.9,41.2v-7.6c-2.4-3.2-6.3-4.8-10.5-4.8c-5.7,0-9.5,3.7-9.5,8.6c0,4.9,3.8,8.6,9.5,8.6
		C182.5,45.9,186.4,44.4,188.9,41.2z"/>
	<path class="hover" style="fill:#F4F4F4;" d="M203.5,48V0h3.7v48H203.5z"/>
</g>
</svg>
