<?xml version="1.0" encoding="utf-8"?>
<!-- Generator: Adobe Illustrator 18.0.0, SVG Export Plug-In . SVG Version: 6.00 Build 0)  -->
<!DOCTYPE svg PUBLIC "-//W3C//DTD SVG 1.1//EN" "http://www.w3.org/Graphics/SVG/1.1/DTD/svg11.dtd">
<svg version="1.1" id="Layer_1" xmlns="http://www.w3.org/2000/svg" xmlns:xlink="http://www.w3.org/1999/xlink" x="0px" y="0px"
	 width="70px" height="78.7px" viewBox="0 0 70 78.7" style="enable-background:new 0 0 70 78.7;" xml:space="preserve">
<style type="text/css">
	.st0{fill:#FFFFFF;}
</style>
<path class="st0 hover" d="M35,78.7c-1.3,0-2.6-0.3-3.7-0.9L3.6,61.7C1.6,60.5,0,57.8,0,55.4V23.3c0-2.4,1.6-5.1,3.6-6.3L31.3,0.9
	c2-1.2,5.3-1.2,7.3,0l27.7,16.1c2.1,1.2,3.6,3.9,3.6,6.3v32.2c0,2.4-1.6,5.1-3.6,6.3L38.7,77.8C37.6,78.4,36.3,78.7,35,78.7z M35,4
	c-0.6,0-1.3,0.1-1.6,0.4L5.6,20.4C4.8,20.9,4,22.3,4,23.3v32.2c0,1,0.8,2.4,1.6,2.9l27.7,16.1c0.8,0.5,2.5,0.5,3.3,0l27.7-16.1
	c0.8-0.5,1.6-1.9,1.6-2.9V23.3c0-1-0.8-2.4-1.6-2.9L36.7,4.3C36.3,4.1,35.6,4,35,4z"/>
<g>
	<path class="st0 hover" d="M32.2,44.6c0,2.2-0.8,4-2.4,5.2s-3.8,1.9-6.6,1.9c-2.8,0-5.1-0.4-6.9-1.3v-3.9c1.1,0.5,2.3,1,3.6,1.3
		c1.3,0.3,2.5,0.5,3.6,0.5c1.6,0,2.8-0.3,3.6-0.9c0.8-0.6,1.2-1.4,1.2-2.5c0-0.9-0.4-1.7-1.1-2.4c-0.7-0.6-2.2-1.4-4.4-2.3
		c-2.3-0.9-3.9-2-4.8-3.2c-0.9-1.2-1.4-2.6-1.4-4.3c0-2.1,0.7-3.7,2.2-4.9c1.5-1.2,3.5-1.8,6-1.8c2.4,0,4.8,0.5,7.1,1.6L30.5,31
		c-2.2-0.9-4.2-1.4-5.9-1.4c-1.3,0-2.3,0.3-3,0.9s-1,1.3-1,2.3c0,0.6,0.1,1.2,0.4,1.7c0.3,0.5,0.7,0.9,1.4,1.3
		c0.6,0.4,1.8,1,3.4,1.6c1.8,0.8,3.2,1.5,4,2.1c0.9,0.7,1.5,1.4,1.9,2.2C32,42.5,32.2,43.5,32.2,44.6z"/>
	<path class="st0 hover" d="M43,51.8c-2.4,0-4.2-0.9-5.5-2.6s-2-4.1-2-7.2c0-3.1,0.7-5.5,2-7.2c1.3-1.7,3.2-2.6,5.6-2.6
		c2.5,0,4.4,0.9,5.7,2.8h0.2c-0.2-1.4-0.3-2.4-0.3-3.2v-6.9h4v26.6h-3.1l-0.7-2.5h-0.2C47.3,50.8,45.4,51.8,43,51.8z M44,48.5
		c1.7,0,2.9-0.5,3.6-1.4s1.1-2.4,1.2-4.5V42c0-2.4-0.4-4.1-1.2-5.1c-0.8-1-2-1.5-3.6-1.5c-1.4,0-2.5,0.6-3.3,1.7
		c-0.8,1.1-1.1,2.8-1.1,4.9c0,2.1,0.4,3.7,1.1,4.8C41.4,48,42.6,48.5,44,48.5z"/>
</g>
</svg>
